<?xml version="1.0" standalone="no"?>
<!DOCTYPE svg PUBLIC "-//W3C//DTD SVG 20010904//EN"
 "http://www.w3.org/TR/2001/REC-SVG-20010904/DTD/svg10.dtd">
<svg version="1.0" xmlns="http://www.w3.org/2000/svg"
 width="600.000000pt" height="600.000000pt" viewBox="0 0 600.000000 600.000000"
 preserveAspectRatio="xMidYMid meet">
<metadata>
Created by potrace 1.11, written by Peter Selinger 2001-2013
</metadata>
<g transform="translate(0.000000,600.000000) scale(0.100000,-0.100000)"
fill="#000000" stroke="none">
<path d="M602 5868 c-36 -12 -88 -58 -112 -98 -13 -21 -15 -103 -18 -530 -2
-444 -1 -510 13 -547 17 -44 69 -97 114 -115 17 -7 176 -12 456 -13 237 -1
457 -6 490 -9 683 -76 1202 -299 1581 -680 192 -193 345 -425 451 -681 16 -40
81 -239 87 -267 3 -13 8 -34 11 -48 3 -14 8 -36 11 -50 3 -14 7 -32 9 -40 3
-8 7 -33 10 -55 9 -67 17 -119 21 -140 2 -11 7 -92 9 -180 3 -88 8 -177 11
-198 14 -112 114 -200 226 -199 54 0 75 10 326 156 101 58 188 106 193 106 5
0 9 5 9 10 0 6 4 10 10 10 5 0 39 18 75 40 36 22 68 40 70 40 3 0 22 11 43 24
30 18 255 149 702 407 100 57 142 158 106 253 -27 69 -60 93 -396 283 -19 11
-107 62 -195 113 -88 51 -174 100 -191 110 -81 47 -653 377 -839 485 -115 67
-230 133 -255 147 -105 59 -438 253 -472 274 -21 13 -40 24 -42 24 -3 0 -69
38 -148 84 -79 45 -163 94 -188 108 -25 14 -155 90 -290 168 -135 78 -265 154
-290 168 -25 14 -74 42 -109 64 -34 21 -65 38 -68 38 -2 0 -46 24 -96 54 -207
122 -388 226 -393 226 -3 0 -25 14 -49 30 -24 17 -46 30 -49 30 -3 0 -35 18
-71 40 -36 22 -67 40 -69 40 -2 0 -104 59 -226 130 -123 72 -224 130 -226 130
-2 0 -26 14 -54 31 -56 34 -133 45 -188 27z"/>
<path d="M588 3846 c-43 -18 -78 -54 -99 -99 -18 -41 -19 -93 -19 -1758 0
-1519 2 -1721 15 -1753 35 -83 118 -133 204 -123 49 6 149 61 961 532 69 40
143 83 166 96 178 103 261 151 274 159 8 5 49 28 90 51 92 52 116 73 142 123
32 62 22 138 -49 356 -8 25 -16 53 -19 64 -18 89 -204 597 -282 766 -149 327
-286 564 -476 820 -38 52 -74 100 -80 106 -6 7 -27 31 -46 55 -143 177 -466
490 -609 589 -41 28 -127 36 -173 16z"/>
</g>
</svg>
