<svg viewBox="0 0 600 600" fill="none" xmlns="http://www.w3.org/2000/svg">
<path fill-rule="evenodd" clip-rule="evenodd" d="M47 32.0298C47 16.6338 63.6667 7.0113 77 14.7093L542 283.177C555.333 290.875 555.333 310.12 542 317.818L406.997 395.762C392.247 404.278 373.613 391.475 373.976 374.448C376.338 263.806 309.355 154.828 142 143.495L67 143.495C55.9543 143.495 47 134.541 47 123.495V32.0298ZM47 233.465C47 217.315 65.0857 207.963 77.6777 218.076C151.953 277.73 199.254 351.216 233.632 479.002C235.957 487.645 232.103 496.737 224.351 501.213L77 586.286C63.6667 593.984 47 584.362 47 568.966V233.465Z" fill="url(#paint0_radial)"/>
<path fill-rule="evenodd" clip-rule="evenodd" d="M47 32.0298C47 16.6338 63.6667 7.0113 77 14.7093L542 283.177C555.333 290.875 555.333 310.12 542 317.818L406.997 395.762C392.247 404.278 373.613 391.475 373.976 374.448C376.338 263.806 309.355 154.828 142 143.495L67 143.495C55.9543 143.495 47 134.541 47 123.495V32.0298ZM47 233.465C47 217.315 65.0857 207.963 77.6777 218.076C151.953 277.73 199.254 351.216 233.632 479.002C235.957 487.645 232.103 496.737 224.351 501.213L77 586.286C63.6667 593.984 47 584.362 47 568.966V233.465Z" fill="url(#paint1_linear)"/>
<path fill-rule="evenodd" clip-rule="evenodd" d="M47 32.0298C47 16.6338 63.6667 7.0113 77 14.7093L542 283.177C555.333 290.875 555.333 310.12 542 317.818L406.997 395.762C392.247 404.278 373.613 391.475 373.976 374.448C376.338 263.806 309.355 154.828 142 143.495L67 143.495C55.9543 143.495 47 134.541 47 123.495V32.0298ZM47 233.465C47 217.315 65.0857 207.963 77.6777 218.076C151.953 277.73 199.254 351.216 233.632 479.002C235.957 487.645 232.103 496.737 224.351 501.213L77 586.286C63.6667 593.984 47 584.362 47 568.966V233.465Z" fill="white"/>
<defs>
<radialGradient id="paint0_radial" cx="0" cy="0" r="1" gradientUnits="userSpaceOnUse" gradientTransform="translate(184.5 370.998) rotate(-37.5388) scale(351.224 379.718)">
<stop stop-color="#FE0B8E"/>
<stop offset="1" stop-color="#9D32CF"/>
</radialGradient>
<linearGradient id="paint1_linear" x1="494.5" y1="446.498" x2="112" y2="351.998" gradientUnits="userSpaceOnUse">
<stop stop-color="#54FFF5" stop-opacity="0.77"/>
<stop offset="1" stop-color="#9F00A3" stop-opacity="0"/>
</linearGradient>
</defs>
</svg>
